<svg width="384" height="241" viewBox="0 0 384 241" fill="none" xmlns="http://www.w3.org/2000/svg">
<path d="M75.9861 183.464C59.645 183.464 47.2984 179.212 38.9463 170.708C30.5942 162.205 26.4181 149.449 26.4181 132.441V69.2061H0V43.6948H26.4181V8.68469L60.4621 0V43.6948H97.2296V69.2061H60.4621V130.27C60.4621 139.679 62.2778 146.283 65.9091 150.082C69.5405 153.882 74.5336 155.782 80.8885 155.782C84.3382 155.782 87.2433 155.51 89.6037 154.967C92.1457 154.425 94.5968 153.701 96.9572 152.796V179.664C93.8706 180.931 90.4208 181.836 86.6078 182.378C82.9765 183.102 79.4359 183.464 75.9861 183.464Z" fill="#D9D9D9"/>
<path d="M125.035 180.75V71.2585H159.079V180.75H125.035ZM123.128 43.3556V12.3655H222.552V43.3556H123.128Z" fill="#D9D9D9"/>
<path d="M172.439 241C168.989 241 165.267 240.729 161.273 240.186C157.097 239.643 153.465 238.738 150.379 237.472V210.604C152.739 211.327 155.281 211.961 158.004 212.503C160.728 213.046 163.361 213.318 165.903 213.318C172.439 213.318 177.523 211.327 181.154 207.347C184.967 203.366 186.874 196.672 186.874 187.264V71.2585H220.918V189.163C220.918 206.171 217.014 219.017 209.207 227.702C201.399 236.567 189.143 241 172.439 241Z" fill="#D9D9D9"/>
<path d="M304.221 183.464C292.238 183.464 281.707 180.66 272.628 175.051C263.55 169.261 256.469 161.029 251.385 150.354C246.301 139.679 243.759 126.923 243.759 112.087C243.759 97.2504 246.301 84.5852 251.385 74.0912C256.469 63.4163 263.55 55.2744 272.628 49.6655C281.707 43.8757 292.238 40.9808 304.221 40.9808C315.841 40.9808 326.009 43.8757 334.724 49.6655C343.621 55.2744 349.522 62.8735 352.427 72.4628L349.956 71.5554V43.6948H384C384 43.6948 384 135.138 384 180.75H349.956V152.525H352.155C349.25 161.933 343.349 169.442 334.452 175.051C325.555 180.66 315.478 183.464 304.221 183.464ZM313.753 157.41C324.466 157.41 333.09 153.701 339.627 146.283C346.163 138.684 349.431 127.285 349.431 112.087C349.431 96.8885 346.163 85.5803 339.627 78.1622C333.09 70.744 324.466 67.0349 313.753 67.0349C303.041 67.0349 294.416 70.744 287.88 78.1622C281.344 85.5803 278.075 96.8885 278.075 112.087C278.075 127.285 281.253 138.684 287.608 146.283C294.144 153.701 302.859 157.41 313.753 157.41Z" fill="#D9D9D9"/>
</svg>

