<svg width="100" height="100" viewBox="0 0 100 100" fill="none" xmlns="http://www.w3.org/2000/svg">
<path d="M60.6975 86C54.3109 86 49.4855 84.3082 46.2213 80.9246C42.957 77.5409 41.3249 72.4655 41.3249 65.6982V40.537H31V30.3861H41.3249V16.4556L54.6303 13V30.3861H69V40.537H54.6303V64.8343C54.6303 68.5779 55.3399 71.2056 56.7591 72.7175C58.1783 74.2293 60.1298 74.9852 62.6134 74.9852C63.9617 74.9852 65.0971 74.8772 66.0196 74.6612C67.0131 74.4453 67.9711 74.1573 68.8936 73.7973V84.4882C67.6872 84.9921 66.3389 85.3521 64.8487 85.568C63.4295 85.856 62.0457 86 60.6975 86Z" fill="url(#paint0_linear_14_10)"/>
<defs>
<linearGradient id="paint0_linear_14_10" x1="24.0909" y1="21.1111" x2="77.3713" y2="89.6562" gradientUnits="userSpaceOnUse">
<stop stop-color="#2145FF" stop-opacity="0.85"/>
<stop offset="1" stop-color="#FF00C7" stop-opacity="0.45"/>
</linearGradient>
</defs>
</svg>
