<?xml version="1.0" standalone="no"?>
<!DOCTYPE svg PUBLIC "-//W3C//DTD SVG 20010904//EN"
 "http://www.w3.org/TR/2001/REC-SVG-20010904/DTD/svg10.dtd">
<svg version="1.0" xmlns="http://www.w3.org/2000/svg"
 width="700.000000pt" height="700.000000pt" viewBox="0 0 700.000000 700.000000"
 preserveAspectRatio="xMidYMid meet">
<metadata>
Created by potrace 1.14, written by Peter Selinger 2001-2017
</metadata>
<g transform="translate(0.000000,700.000000) scale(0.100000,-0.100000)"
fill="#000000" stroke="none">
<path d="M3810 6344 c-25 -6 -171 -44 -325 -83 -154 -40 -366 -94 -472 -122
-105 -27 -194 -49 -197 -49 -3 0 -7 -246 -8 -547 l-3 -548 -403 0 c-221 0
-403 -2 -403 -5 -3 -12 -5 -776 -2 -785 2 -6 145 -10 404 -10 277 1 403 -3
405 -10 3 -6 6 -485 8 -1065 2 -580 4 -1055 5 -1055 1 0 4 -38 7 -85 2 -46 7
-96 10 -110 3 -14 7 -43 10 -65 5 -33 28 -145 37 -180 2 -5 9 -34 17 -63 8
-28 17 -52 22 -52 4 0 4 -7 1 -17 -4 -11 -3 -14 5 -9 8 4 10 2 6 -7 -6 -17 92
-227 107 -227 6 0 8 -4 4 -9 -3 -5 2 -16 10 -24 8 -9 15 -20 15 -25 0 -6 13
-24 29 -41 17 -18 31 -35 32 -39 1 -4 10 -16 20 -27 10 -11 29 -33 43 -48 14
-16 33 -30 43 -31 10 -2 17 -10 15 -18 -3 -17 24 -32 39 -23 5 4 6 -1 3 -9 -6
-16 28 -40 41 -28 5 4 6 3 3 -3 -3 -5 0 -16 8 -23 8 -7 14 -10 14 -7 0 3 9 -4
20 -15 21 -21 46 -18 34 3 -4 7 -3 8 2 4 5 -5 9 -14 9 -20 0 -7 2 -12 5 -12 3
0 17 -10 30 -23 14 -13 33 -21 42 -18 10 2 21 -1 25 -6 4 -7 1 -8 -8 -4 -8 4
-5 0 6 -9 11 -9 28 -14 38 -11 11 2 16 2 13 -1 -7 -8 26 -25 89 -46 58 -20 58
-20 50 -4 -4 6 0 4 8 -6 8 -10 28 -19 45 -20 16 -1 28 -5 25 -9 -2 -5 10 -9
26 -9 33 -2 37 -2 61 -11 35 -14 60 -16 60 -5 0 9 2 9 8 1 9 -13 54 -26 46
-13 -3 5 0 9 5 9 6 0 11 -4 11 -9 0 -13 67 -19 86 -8 13 7 15 6 9 -3 -6 -10
-2 -12 13 -8 12 4 22 2 22 -3 0 -6 8 -5 20 1 15 8 20 8 20 -1 0 -9 3 -9 14 0
9 8 16 8 20 2 4 -6 54 -9 116 -9 60 0 107 4 105 9 -3 4 -1 11 5 14 6 4 9 1 8
-7 -3 -13 5 -14 87 -3 22 3 49 6 60 6 11 0 23 5 27 12 6 9 8 9 8 -1 0 -8 5
-10 13 -5 6 4 19 8 28 8 9 0 24 7 34 15 11 9 16 10 11 3 -4 -7 -3 -13 3 -13 5
0 12 6 14 13 4 9 6 9 6 -2 1 -9 6 -8 19 6 9 10 13 13 8 6 -11 -16 -8 -16 70 3
48 12 64 20 60 31 -4 9 -2 11 7 6 21 -13 39 -12 33 2 -2 7 3 19 12 27 15 11
15 11 5 -3 -7 -9 -10 -18 -7 -21 8 -9 44 3 44 14 0 5 -4 7 -8 4 -5 -3 -9 1 -9
8 0 8 6 12 12 10 13 -5 14 24 1 44 -4 6 -4 12 1 12 4 0 8 78 8 174 0 96 -2
173 -5 171 -3 -2 -6 5 -6 16 0 10 3 19 6 19 13 0 4 50 -10 51 -11 0 -10 2 3 8
10 4 18 11 18 16 0 5 -8 12 -18 16 -13 6 -14 8 -3 8 11 1 16 12 16 41 0 23 -3
37 -9 33 -6 -4 -7 -1 -2 7 9 14 11 177 3 186 -7 6 -69 -17 -64 -24 2 -4 -15
-8 -37 -9 -23 -1 -43 -6 -45 -12 -2 -6 -8 -9 -13 -5 -13 8 -70 -6 -64 -15 2
-5 -7 -6 -20 -3 -14 2 -33 -2 -42 -9 -14 -12 -16 -12 -8 0 6 10 4 12 -4 6 -7
-4 -40 -8 -74 -8 -43 0 -66 -5 -75 -16 -8 -9 -11 -11 -8 -5 9 19 -61 23 -79 4
-15 -14 -15 -13 -9 4 4 11 3 17 -2 14 -5 -3 -36 -1 -69 4 -33 6 -69 11 -80 12
-11 0 -22 3 -25 6 -12 12 -62 30 -71 25 -5 -4 -9 -3 -9 2 0 4 -23 21 -50 38
-28 16 -50 34 -50 40 0 5 -5 3 -10 -5 -8 -13 -10 -12 -10 2 0 10 -9 23 -20 30
-11 7 -20 19 -20 26 0 7 -5 10 -10 7 -6 -3 -10 -2 -10 4 0 5 -13 30 -29 54
-33 48 -78 173 -87 241 -4 25 -9 44 -13 42 -3 -2 -6 17 -7 42 -3 147 -9 224
-16 228 -5 3 -5 11 -1 17 12 19 11 297 -1 297 -6 0 -5 4 2 9 15 9 13 42 -3 53
-6 5 -5 8 2 8 15 0 13 50 -2 50 -5 0 -3 5 5 10 12 8 13 13 3 29 -8 12 -9 22
-3 26 13 8 9 55 -5 55 -5 0 -4 4 4 9 13 8 13 12 0 27 -8 10 -9 15 -4 12 8 -5
11 185 10 620 0 345 1 638 3 652 l4 26 516 2 c284 1 522 2 527 2 6 1 25 -1 43
-3 18 -2 36 2 40 7 6 11 11 761 5 781 -2 7 -200 10 -568 10 l-565 -1 0 678 c0
372 -3 678 -7 681 -5 2 -28 -2 -53 -9z m-83 -3469 c0 -8 -4 -12 -9 -9 -5 3 -6
10 -3 15 9 13 12 11 12 -6z m-562 -395 c3 -5 1 -10 -4 -10 -6 0 -11 5 -11 10
0 6 2 10 4 10 3 0 8 -4 11 -10z m175 -274 c0 -2 -8 -10 -17 -17 -16 -13 -17
-12 -4 4 13 16 21 21 21 13z m145 -115 c3 -5 2 -12 -3 -15 -5 -3 -9 1 -9 9 0
17 3 19 12 6z m-440 -111 c3 -5 1 -10 -4 -10 -6 0 -11 5 -11 10 0 6 2 10 4 10
3 0 8 -4 11 -10z m45 -220 c0 -5 -5 -10 -11 -10 -5 0 -7 5 -4 10 3 6 8 10 11
10 2 0 4 -4 4 -10z m84 2 c3 -5 -1 -9 -9 -9 -8 0 -12 4 -9 9 3 4 7 8 9 8 2 0
6 -4 9 -8z m861 -162 c-3 -5 -12 -10 -18 -10 -7 0 -6 4 3 10 19 12 23 12 15 0z
m94 -33 c8 -10 7 -14 -2 -14 -8 0 -14 6 -14 14 0 7 1 13 2 13 2 0 8 -6 14 -13z
m-219 -41 c0 -2 -7 -7 -16 -10 -8 -3 -12 -2 -9 4 6 10 25 14 25 6z m200 -22
c0 -8 -19 -13 -24 -6 -3 5 1 9 9 9 8 0 15 -2 15 -3z m116 -6 c3 -4 -1 -5 -10
-4 -8 1 -18 5 -22 8 -3 4 1 5 10 4 8 -1 18 -5 22 -8z m-240 -23 c-1 -8 -5 -17
-8 -21 -5 -4 -4 16 1 34 3 9 9 -1 7 -13z m418 7 c3 -5 -1 -9 -9 -9 -8 0 -12 4
-9 9 3 4 7 8 9 8 2 0 6 -4 9 -8z m561 -10 c-3 -3 -11 0 -18 7 -9 10 -8 11 6 5
10 -3 15 -9 12 -12z m-635 -17 c0 -2 -9 -3 -19 -2 -11 0 -18 5 -15 9 4 6 34 0
34 -7z m521 -12 c13 -16 12 -17 -3 -4 -17 13 -22 21 -14 21 2 0 10 -8 17 -17z
m-624 -12 c0 -11 -5 -18 -9 -15 -4 3 -5 11 -1 19 7 21 12 19 10 -4z m743 15
c0 -2 -7 -7 -16 -10 -8 -3 -12 -2 -9 4 6 10 25 14 25 6z m-1000 -20 c0 -3 -4
-8 -10 -11 -5 -3 -10 -1 -10 4 0 6 5 11 10 11 6 0 10 -2 10 -4z m95 -5 c-9 -8
-36 -10 -30 -2 2 4 11 8 20 8 8 0 13 -3 10 -6z m60 0 c-9 -8 -36 -10 -30 -2 2
4 11 8 20 8 8 0 13 -3 10 -6z m225 5 c0 -3 -4 -8 -10 -11 -5 -3 -10 -1 -10 4
0 6 5 11 10 11 6 0 10 -2 10 -4z m-540 -10 c0 -2 -8 -10 -17 -17 -16 -13 -17
-12 -4 4 13 16 21 21 21 13z m978 -12 c8 -2 17 -5 20 -8 3 -4 -4 -5 -16 -3
-12 2 -28 9 -35 17 -10 10 -9 11 3 4 8 -5 21 -9 28 -10z m-1181 -9 c0 -8 -4
-12 -9 -9 -5 3 -6 10 -3 15 9 13 12 11 12 -6z m400 0 c0 -8 -4 -12 -9 -9 -5 3
-6 10 -3 15 9 13 12 11 12 -6z m-286 -28 c-10 -9 -11 -8 -5 6 3 10 9 15 12 12
3 -3 0 -11 -7 -18z m462 -2 c-7 -21 -12 -19 -10 4 0 11 5 18 9 15 4 -3 5 -11
1 -19z m47 15 c0 -5 -5 -10 -11 -10 -5 0 -7 5 -4 10 3 6 8 10 11 10 2 0 4 -4
4 -10z m115 0 c3 -5 1 -10 -4 -10 -6 0 -11 5 -11 10 0 6 2 10 4 10 3 0 8 -4
11 -10z m45 0 c0 -5 -5 -10 -11 -10 -5 0 -7 5 -4 10 3 6 8 10 11 10 2 0 4 -4
4 -10z m40 6 c0 -3 -4 -8 -10 -11 -5 -3 -10 -1 -10 4 0 6 5 11 10 11 6 0 10
-2 10 -4z m181 -23 c13 -16 12 -17 -3 -4 -17 13 -22 21 -14 21 2 0 10 -8 17
-17z m-1201 1 c0 -8 -19 -13 -24 -6 -3 5 1 9 9 9 8 0 15 -2 15 -3z m457 -13
c0 -11 -5 -18 -9 -15 -4 3 -5 11 -1 19 7 21 12 19 10 -4z m118 -10 c-9 -8 -36
-10 -30 -2 2 4 11 8 20 8 8 0 13 -3 10 -6z m45 -1 c0 -5 -5 -10 -11 -10 -5 0
-7 5 -4 10 3 6 8 10 11 10 2 0 4 -4 4 -10z m80 0 c0 -5 -2 -10 -4 -10 -3 0 -8
5 -11 10 -3 6 -1 10 4 10 6 0 11 -4 11 -10z m240 0 c0 -5 -2 -10 -4 -10 -3 0
-8 5 -11 10 -3 6 -1 10 4 10 6 0 11 -4 11 -10z m40 0 c0 -5 -2 -10 -4 -10 -3
0 -8 5 -11 10 -3 6 -1 10 4 10 6 0 11 -4 11 -10z m256 -5 c-1 -8 -5 -17 -8
-21 -5 -4 -4 16 1 34 3 9 9 -1 7 -13z m-1082 -21 c3 -8 2 -12 -4 -9 -6 3 -10
10 -10 16 0 14 7 11 14 -7z m106 12 c0 -2 -7 -7 -16 -10 -8 -3 -12 -2 -9 4 6
10 25 14 25 6z m40 -6 c0 -5 -2 -10 -4 -10 -3 0 -8 5 -11 10 -3 6 -1 10 4 10
6 0 11 -4 11 -10z m220 6 c0 -2 -7 -7 -16 -10 -8 -3 -12 -2 -9 4 6 10 25 14
25 6z m240 -2 c0 -8 -19 -13 -24 -6 -3 5 1 9 9 9 8 0 15 -2 15 -3z m450 2 c0
-2 -8 -10 -17 -17 -16 -13 -17 -12 -4 4 13 16 21 21 21 13z m70 0 c0 -2 -7 -7
-16 -10 -8 -3 -12 -2 -9 4 6 10 25 14 25 6z m-824 -42 c1 -9 0 -13 -4 -10 -3
4 -7 14 -8 22 -1 9 0 13 4 10 3 -4 7 -14 8 -22z m301 1 c0 -8 -4 -12 -9 -9 -5
3 -6 10 -3 15 9 13 12 11 12 -6z m159 -5 c0 -12 -4 -16 -9 -11 -5 5 -6 14 -3
20 10 15 12 14 12 -9z m521 5 c0 -8 -4 -12 -9 -9 -5 3 -6 10 -3 15 9 13 12 11
12 -6z m-1137 -5 c0 -5 -5 -10 -11 -10 -5 0 -7 5 -4 10 3 6 8 10 11 10 2 0 4
-4 4 -10z m116 -16 c1 -9 0 -13 -4 -10 -3 4 -7 14 -8 22 -1 9 0 13 4 10 3 -4
7 -14 8 -22z m109 16 c3 -6 -1 -7 -9 -4 -18 7 -21 14 -7 14 6 0 13 -4 16 -10z
m275 6 c0 -3 -4 -8 -10 -11 -5 -3 -10 -1 -10 4 0 6 5 11 10 11 6 0 10 -2 10
-4z m40 -6 c0 -5 -4 -10 -10 -10 -5 0 -10 5 -10 10 0 6 5 10 10 10 6 0 10 -4
10 -10z m574 -6 c3 -8 2 -12 -4 -9 -6 3 -10 10 -10 16 0 14 7 11 14 -7z m-834
-8 c0 -3 -4 -8 -10 -11 -5 -3 -10 -1 -10 4 0 6 5 11 10 11 6 0 10 -2 10 -4z
m80 -6 c0 -5 -5 -10 -11 -10 -5 0 -7 5 -4 10 3 6 8 10 11 10 2 0 4 -4 4 -10z
m417 -5 c0 -8 -4 -12 -9 -9 -5 3 -6 10 -3 15 9 13 12 11 12 -6z m199 0 c-1 -8
-5 -17 -8 -21 -5 -4 -4 16 1 34 3 9 9 -1 7 -13z m190 -13 c-12 -12 -19 -13
-27 -5 -8 8 -6 11 7 10 11 -1 18 4 16 11 -1 8 2 11 9 7 8 -5 6 -12 -5 -23z
m51 11 c0 -9 -4 -10 -14 -2 -7 6 -13 12 -13 14 0 1 6 2 13 2 8 0 14 -6 14 -14z
m-1157 -7 c0 -2 -7 -7 -16 -10 -8 -3 -12 -2 -9 4 6 10 25 14 25 6z m984 -4 c3
-5 -1 -9 -9 -9 -8 0 -12 4 -9 9 3 4 7 8 9 8 2 0 6 -4 9 -8z m46 2 c0 -8 -19
-13 -24 -6 -3 5 1 9 9 9 8 0 15 -2 15 -3z m175 -3 c-9 -8 -36 -10 -30 -2 2 4
11 8 20 8 8 0 13 -3 10 -6z m-1269 -37 c1 -9 0 -13 -4 -10 -3 4 -7 14 -8 22
-1 9 0 13 4 10 3 -4 7 -14 8 -22z m204 22 c0 -3 -4 -8 -10 -11 -5 -3 -10 -1
-10 4 0 6 5 11 10 11 6 0 10 -2 10 -4z m115 -6 c3 -5 1 -10 -4 -10 -6 0 -11 5
-11 10 0 6 2 10 4 10 3 0 8 -4 11 -10z m919 -30 c-6 -6 -10 -3 -10 10 0 13 4
16 10 10 7 -7 7 -13 0 -20z m-1084 17 c0 -2 -9 -12 -19 -21 -14 -13 -21 -14
-27 -5 -4 7 -3 10 3 6 6 -4 16 0 23 8 12 14 20 19 20 12z m854 -5 c3 -5 -1 -9
-9 -9 -8 0 -12 4 -9 9 3 4 7 8 9 8 2 0 6 -4 9 -8z m178 -6 c-4 -6 -7 -14 -7
-18 0 -19 -11 -14 -11 6 0 12 6 23 13 23 6 0 9 -5 5 -11z m-1292 -12 c0 -8
-19 -13 -24 -6 -3 5 1 9 9 9 8 0 15 -2 15 -3z m184 -2 c3 -5 -1 -9 -9 -9 -8 0
-12 4 -9 9 3 4 7 8 9 8 2 0 6 -4 9 -8z m701 -10 c-3 -3 -11 0 -18 7 -9 10 -8
11 6 5 10 -3 15 -9 12 -12z m40 0 c-3 -3 -11 0 -18 7 -9 10 -8 11 6 5 10 -3
15 -9 12 -12z m90 8 c-3 -5 -12 -10 -18 -10 -7 0 -6 4 3 10 19 12 23 12 15 0z
m113 -10 c-7 -10 -14 -17 -17 -15 -4 4 18 35 25 35 2 0 -1 -9 -8 -20z m39 13
c-4 -3 1 -16 10 -27 18 -21 18 -21 -4 -2 -20 16 -23 36 -6 36 4 0 3 -3 0 -7z
m39 -19 c1 -9 0 -13 -4 -10 -3 4 -7 14 -8 22 -1 9 0 13 4 10 3 -4 7 -14 8 -22z
m-1316 2 c0 -2 -7 -7 -16 -10 -8 -3 -12 -2 -9 4 6 10 25 14 25 6z m57 -15 c0
-11 -5 -18 -9 -15 -4 3 -5 11 -1 19 7 21 12 19 10 -4z m119 4 c-1 -8 -5 -17
-8 -21 -5 -4 -4 16 1 34 3 9 9 -1 7 -13z m1248 7 c3 -5 -1 -9 -9 -9 -8 0 -12
4 -9 9 3 4 7 8 9 8 2 0 6 -4 9 -8z m61 -2 c3 -6 -1 -7 -9 -4 -18 7 -21 14 -7
14 6 0 13 -4 16 -10z m-1150 -9 c3 -5 2 -12 -3 -15 -5 -3 -9 1 -9 9 0 17 3 19
12 6z m1024 -4 c8 -10 7 -14 -2 -14 -8 0 -14 6 -14 14 0 7 1 13 2 13 2 0 8 -6
14 -13z m-1103 -9 c3 -4 -1 -5 -10 -4 -8 1 -18 5 -22 8 -3 4 1 5 10 4 8 -1 18
-5 22 -8z m164 2 c0 -5 -5 -10 -11 -10 -5 0 -7 5 -4 10 3 6 8 10 11 10 2 0 4
-4 4 -10z m34 2 c3 -5 -1 -9 -9 -9 -8 0 -12 4 -9 9 3 4 7 8 9 8 2 0 6 -4 9 -8z
m121 -2 c3 -5 1 -10 -4 -10 -6 0 -11 5 -11 10 0 6 2 10 4 10 3 0 8 -4 11 -10z
m580 0 c3 -5 1 -10 -4 -10 -6 0 -11 5 -11 10 0 6 2 10 4 10 3 0 8 -4 11 -10z
m319 1 c3 -5 -2 -15 -12 -22 -15 -12 -16 -12 -5 2 7 9 10 19 6 22 -3 4 -4 7 0
7 3 0 8 -4 11 -9z m-1517 -26 c0 -8 -4 -12 -9 -9 -5 3 -6 10 -3 15 9 13 12 11
12 -6z m1138 5 c3 -5 1 -10 -4 -10 -6 0 -11 5 -11 10 0 6 2 10 4 10 3 0 8 -4
11 -10z m125 1 c0 -6 -4 -12 -8 -15 -5 -3 -9 1 -9 9 0 8 4 15 9 15 4 0 8 -4 8
-9z m74 -2 c3 -3 -5 -5 -19 -5 -13 0 -22 3 -19 7 4 8 30 6 38 -2z m-137 -14
c0 -8 -4 -12 -9 -9 -5 3 -6 10 -3 15 9 13 12 11 12 -6z m-1062 -4 c-9 -8 -36
-10 -30 -2 2 4 11 8 20 8 8 0 13 -3 10 -6z m81 -6 c-1 -8 -5 -17 -8 -21 -5 -4
-4 16 1 34 3 9 9 -1 7 -13z m1209 -32 c-18 -17 -18 -17 -6 0 11 14 11 20 0 35
-12 16 -12 16 6 0 19 -18 19 -18 0 -35z m-32 22 c-3 -9 -8 -14 -10 -11 -3 3
-2 9 2 15 9 16 15 13 8 -4z m106 2 c8 -10 7 -14 -2 -14 -8 0 -14 6 -14 14 0 7
1 13 2 13 2 0 8 -6 14 -13z m-1323 -12 c-1 -8 -5 -17 -8 -21 -5 -4 -4 16 1 34
3 9 9 -1 7 -13z m735 -2 c13 -16 12 -17 -3 -4 -17 13 -22 21 -14 21 2 0 10 -8
17 -17z m-895 -15 c3 -4 -1 -5 -10 -4 -8 1 -18 5 -22 8 -3 4 1 5 10 4 8 -1 18
-5 22 -8z m399 2 c3 -5 1 -10 -4 -10 -6 0 -11 5 -11 10 0 6 2 10 4 10 3 0 8
-4 11 -10z m45 0 c0 -5 -5 -10 -11 -10 -5 0 -7 5 -4 10 3 6 8 10 11 10 2 0 4
-4 4 -10z m40 0 c0 -5 -5 -10 -11 -10 -5 0 -7 5 -4 10 3 6 8 10 11 10 2 0 4
-4 4 -10z m40 0 c0 -5 -5 -10 -11 -10 -5 0 -7 5 -4 10 3 6 8 10 11 10 2 0 4
-4 4 -10z m576 -5 c-1 -8 -5 -17 -8 -21 -5 -4 -4 16 1 34 3 9 9 -1 7 -13z
m144 -16 c0 -5 -4 -9 -8 -9 -5 0 -9 7 -9 15 0 8 4 12 9 9 4 -3 8 -9 8 -15z
m-1204 -4 c-1 -8 -5 -17 -8 -21 -5 -4 -4 16 1 34 3 9 9 -1 7 -13z m829 5 c3
-6 -1 -7 -9 -4 -18 7 -21 14 -7 14 6 0 13 -4 16 -10z m155 5 c0 -7 -30 -13
-34 -7 -3 4 4 9 15 9 10 1 19 0 19 -2z m-940 -25 c0 -5 -2 -10 -4 -10 -3 0 -8
5 -11 10 -3 6 -1 10 4 10 6 0 11 -4 11 -10z m195 0 c3 -5 1 -10 -4 -10 -6 0
-11 5 -11 10 0 6 2 10 4 10 3 0 8 -4 11 -10z m45 6 c0 -3 -4 -8 -10 -11 -5 -3
-10 -1 -10 4 0 6 5 11 10 11 6 0 10 -2 10 -4z m40 -6 c0 -5 -2 -10 -4 -10 -3
0 -8 5 -11 10 -3 6 -1 10 4 10 6 0 11 -4 11 -10z m80 0 c0 -5 -5 -10 -11 -10
-5 0 -7 5 -4 10 3 6 8 10 11 10 2 0 4 -4 4 -10z m40 6 c0 -3 -4 -8 -10 -11 -5
-3 -10 -1 -10 4 0 6 5 11 10 11 6 0 10 -2 10 -4z m40 -6 c0 -5 -5 -10 -11 -10
-5 0 -7 5 -4 10 3 6 8 10 11 10 2 0 4 -4 4 -10z m40 0 c0 -5 -2 -10 -4 -10 -3
0 -8 5 -11 10 -3 6 -1 10 4 10 6 0 11 -4 11 -10z m698 -10 c-7 -10 -14 -17
-17 -15 -4 4 18 35 25 35 2 0 -1 -9 -8 -20z m-1309 -14 c9 -11 9 -16 -1 -22
-7 -4 -10 -4 -6 1 4 4 3 14 -3 22 -6 7 -9 13 -6 13 2 0 10 -6 16 -14z m881 10
c0 -2 -8 -10 -17 -17 -16 -13 -17 -12 -4 4 13 16 21 21 21 13z m84 -4 c3 -5
-1 -9 -9 -9 -8 0 -12 4 -9 9 3 4 7 8 9 8 2 0 6 -4 9 -8z m60 0 c3 -5 -1 -9 -9
-9 -8 0 -12 4 -9 9 3 4 7 8 9 8 2 0 6 -4 9 -8z m311 -2 c-3 -5 -12 -10 -18
-10 -7 0 -6 4 3 10 19 12 23 12 15 0z m219 1 c-7 -8 -74 -9 -69 -1 2 3 19 6
39 6 19 0 33 -3 30 -5z m-1349 -10 c3 -5 2 -12 -3 -15 -5 -3 -9 1 -9 9 0 17 3
19 12 6z m120 0 c3 -5 2 -12 -3 -15 -5 -3 -9 1 -9 9 0 17 3 19 12 6z m-279
-27 c1 -9 0 -13 -4 -10 -3 4 -7 14 -8 22 -1 9 0 13 4 10 3 -4 7 -14 8 -22z
m77 1 c-7 -21 -12 -19 -10 4 0 11 5 18 9 15 4 -3 5 -11 1 -19z m121 17 c3 -5
-1 -9 -9 -9 -8 0 -12 4 -9 9 3 4 7 8 9 8 2 0 6 -4 9 -8z m146 -22 c0 -5 -5
-10 -11 -10 -5 0 -7 5 -4 10 3 6 8 10 11 10 2 0 4 -4 4 -10z m834 1 c-7 -8
-74 -9 -69 -1 2 3 19 6 39 6 19 0 33 -3 30 -5z m-1238 -23 c3 -4 -1 -5 -10 -4
-8 1 -18 5 -22 8 -3 4 1 5 10 4 8 -1 18 -5 22 -8z m464 2 c0 -5 -5 -10 -11
-10 -5 0 -7 5 -4 10 3 6 8 10 11 10 2 0 4 -4 4 -10z m576 -15 c1 -8 -2 -15 -6
-15 -5 0 -8 9 -7 20 1 21 10 18 13 -5z m44 19 c0 -8 -19 -13 -24 -6 -3 5 1 9
9 9 8 0 15 -2 15 -3z m241 -7 c-6 -8 -9 -16 -6 -19 3 -3 -3 -11 -12 -19 -16
-13 -17 -12 -4 4 7 9 10 17 6 17 -4 0 -2 7 5 15 7 8 15 15 17 15 3 0 0 -6 -6
-13z m159 -1 c-7 -7 -13 -7 -20 0 -6 6 -3 10 10 10 13 0 16 -4 10 -10z m-584
-22 c1 -9 0 -13 -4 -10 -3 4 -7 14 -8 22 -1 9 0 13 4 10 3 -4 7 -14 8 -22z
m357 11 c-3 -9 -8 -14 -10 -11 -3 3 -2 9 2 15 9 16 15 13 8 -4z m107 -6 c0 -5
-4 -9 -8 -9 -5 0 -9 7 -9 15 0 8 4 12 9 9 4 -3 8 -9 8 -15z m-1005 1 c3 -5 1
-10 -4 -10 -6 0 -11 5 -11 10 0 6 2 10 4 10 3 0 8 -4 11 -10z m45 0 c0 -5 -2
-10 -4 -10 -3 0 -8 5 -11 10 -3 6 -1 10 4 10 6 0 11 -4 11 -10z m320 0 c0 -5
-5 -10 -11 -10 -5 0 -7 5 -4 10 3 6 8 10 11 10 2 0 4 -4 4 -10z m114 2 c3 -5
-1 -9 -9 -9 -8 0 -12 4 -9 9 3 4 7 8 9 8 2 0 6 -4 9 -8z m163 -11 c0 -11 -5
-18 -9 -15 -4 3 -5 11 -1 19 7 21 12 19 10 -4z m534 2 c12 -16 12 -17 -2 -6
-9 7 -19 10 -22 6 -4 -3 -7 -1 -7 5 0 17 16 15 31 -5z m-458 -8 c-3 -9 -8 -14
-10 -11 -3 3 -2 9 2 15 9 16 15 13 8 -4z m408 -2 c13 -16 12 -17 -3 -4 -17 13
-22 21 -14 21 2 0 10 -8 17 -17z m-1387 -5 c-3 -4 -11 -5 -19 -1 -21 7 -19 12
4 10 11 0 18 -5 15 -9z m46 2 c0 -5 -2 -10 -4 -10 -3 0 -8 5 -11 10 -3 6 -1
10 4 10 6 0 11 -4 11 -10z m825 0 c3 -6 -1 -7 -9 -4 -18 7 -21 14 -7 14 6 0
13 -4 16 -10z m-730 -9 c3 -5 2 -12 -3 -15 -5 -3 -9 1 -9 9 0 17 3 19 12 6z
m440 0 c3 -5 2 -12 -3 -15 -5 -3 -9 1 -9 9 0 17 3 19 12 6z m360 0 c3 -5 2
-12 -3 -15 -5 -3 -9 1 -9 9 0 17 3 19 12 6z m244 -18 c2 -1 -5 -1 -16 0 -11 0
-20 7 -20 14 0 10 4 10 16 1 9 -7 18 -13 20 -15z m196 -21 c-1 -9 3 -24 9 -32
9 -13 9 -13 -6 -2 -9 7 -15 21 -13 30 1 9 -5 26 -14 37 -16 20 -16 20 6 2 11
-10 20 -26 18 -35z m57 33 c2 3 5 -2 5 -10 0 -19 0 -19 -23 7 -12 14 -13 18
-3 10 9 -6 18 -10 21 -7z m-1255 -10 c0 -8 -4 -12 -9 -9 -5 3 -6 10 -3 15 9
13 12 11 12 -6z m74 -8 c-10 -9 -11 -8 -5 6 3 10 9 15 12 12 3 -3 0 -11 -7
-18z m299 19 c0 -2 -8 -10 -17 -17 -16 -13 -17 -12 -4 4 13 16 21 21 21 13z
m304 -4 c3 -5 -1 -9 -9 -9 -8 0 -12 4 -9 9 3 4 7 8 9 8 2 0 6 -4 9 -8z m263
-9 c0 -9 -4 -10 -14 -2 -7 6 -13 12 -13 14 0 1 6 2 13 2 8 0 14 -6 14 -14z
m216 -1 c15 -16 15 -19 2 -19 -8 0 -13 3 -10 5 3 3 0 11 -6 19 -17 20 -5 16
14 -5z m-553 -12 c0 -5 -5 -10 -11 -10 -5 0 -7 5 -4 10 3 6 8 10 11 10 2 0 4
-4 4 -10z m629 -4 c9 -11 9 -16 -1 -22 -7 -4 -10 -4 -6 1 4 4 3 14 -3 22 -6 7
-9 13 -6 13 2 0 10 -6 16 -14z m-563 -18 c12 -14 13 -18 3 -10 -9 6 -18 10
-21 7 -2 -3 -5 2 -5 10 0 19 0 19 23 -7z m-706 8 c0 -2 -7 -7 -16 -10 -8 -3
-12 -2 -9 4 6 10 25 14 25 6z m34 -4 c3 -5 -1 -9 -9 -9 -8 0 -12 4 -9 9 3 4 7
8 9 8 2 0 6 -4 9 -8z m40 -8 c3 -8 2 -12 -4 -9 -6 3 -10 10 -10 16 0 14 7 11
14 -7z m983 1 c0 -8 -4 -12 -9 -9 -4 3 -8 9 -8 15 0 5 4 9 8 9 5 0 9 -7 9 -15z
m-261 -39 c-2 -38 -12 -39 -12 -1 0 18 3 32 7 30 3 -3 5 -15 5 -29z m321 27
c-4 -3 -1 -13 6 -22 11 -14 10 -14 -5 -2 -16 12 -16 31 -1 31 4 0 3 -3 0 -7z
m168 -3 c-3 -5 -12 -10 -18 -10 -7 0 -6 4 3 10 19 12 23 12 15 0z m-965 -4 c0
-2 -8 -10 -17 -17 -16 -13 -17 -12 -4 4 13 16 21 21 21 13z m877 -45 c1 -11
-6 -26 -15 -33 -15 -11 -15 -11 -5 2 14 19 12 42 -7 66 -14 18 -14 18 6 2 11
-9 20 -26 21 -37z m-547 33 c0 -8 -19 -13 -24 -6 -3 5 1 9 9 9 8 0 15 -2 15
-3z m207 -9 c0 -8 -4 -12 -9 -9 -4 3 -8 9 -8 15 0 5 4 9 8 9 5 0 9 -7 9 -15z
m62 12 c-2 -1 -13 -9 -24 -17 -19 -14 -19 -14 -6 3 7 9 18 17 24 17 6 0 8 -1
6 -3z m120 0 c-2 -1 -13 -9 -24 -17 -19 -14 -19 -14 -6 3 7 9 18 17 24 17 6 0
8 -1 6 -3z m286 -7 c3 -6 -1 -7 -9 -4 -18 7 -21 14 -7 14 6 0 13 -4 16 -10z
m-650 -9 c3 -5 2 -12 -3 -15 -5 -3 -9 1 -9 9 0 17 3 19 12 6z m486 -8 c13 -16
12 -17 -3 -4 -17 13 -22 21 -14 21 2 0 10 -8 17 -17z m-410 -10 c13 -16 12
-17 -3 -4 -17 13 -22 21 -14 21 2 0 10 -8 17 -17z m200 0 c13 -16 12 -17 -3
-4 -10 7 -18 15 -18 17 0 8 8 3 21 -13z m99 14 c0 -2 -10 -13 -23 -25 -18 -17
-24 -19 -24 -8 0 8 4 13 8 11 3 -3 12 2 19 10 12 14 20 19 20 12z m-574 -32
c1 -8 -1 -17 -5 -19 -4 -3 -7 6 -7 19 0 25 8 25 12 0z m617 10 c-3 -9 -8 -14
-10 -11 -3 3 -2 9 2 15 9 16 15 13 8 -4z m48 -2 c13 -16 12 -17 -3 -4 -10 7
-18 15 -18 17 0 8 8 3 21 -13z m-1061 -3 c0 -5 -2 -10 -4 -10 -3 0 -8 5 -11
10 -3 6 -1 10 4 10 6 0 11 -4 11 -10z m190 4 c0 -8 -19 -13 -24 -6 -3 5 1 9 9
9 8 0 15 -2 15 -3z m81 -17 c-10 -9 -11 -8 -5 6 3 10 9 15 12 12 3 -3 0 -11
-7 -18z m545 11 c4 -7 3 -10 -1 -5 -5 4 -18 -1 -29 -10 -21 -18 -21 -18 -2 5
22 26 23 26 32 10z m75 -11 c-10 -9 -11 -8 -5 6 3 10 9 15 12 12 3 -3 0 -11
-7 -18z m-454 0 c0 -8 -6 -14 -14 -14 -9 0 -10 4 -2 14 6 7 12 13 14 13 1 0 2
-6 2 -13z m604 -4 c13 -16 12 -17 -3 -4 -10 7 -18 15 -18 17 0 8 8 3 21 -13z
m-477 -1 c3 -5 -1 -9 -9 -9 -8 0 -15 4 -15 9 0 4 4 8 9 8 6 0 12 -4 15 -8z
m393 -10 c-17 -19 -57 -27 -57 -12 0 5 9 7 19 5 11 -2 25 3 32 11 6 8 14 14
17 14 3 0 -2 -8 -11 -18z m62 -6 c9 -10 8 -15 -2 -19 -8 -3 -13 3 -13 14 0 23
0 23 15 5z m115 -1 c-4 -8 -11 -15 -16 -15 -6 0 -5 6 2 15 7 8 14 15 16 15 2
0 1 -7 -2 -15z m-1014 -5 c0 -5 -2 -10 -4 -10 -3 0 -8 5 -11 10 -3 6 -1 10 4
10 6 0 11 -4 11 -10z m600 5 c0 -7 -30 -13 -34 -7 -3 4 4 9 15 9 10 1 19 0 19
-2z m116 -26 c1 -19 -1 -26 -6 -19 -4 7 -6 20 -5 29 7 32 10 29 11 -10z m-35
4 c13 -16 12 -17 -3 -4 -10 7 -18 15 -18 17 0 8 8 3 21 -13z m-484 0 c-4 -3
-1 -13 6 -22 11 -14 10 -14 -5 -2 -16 12 -16 31 -1 31 4 0 3 -3 0 -7z m396
-16 c4 3 7 1 7 -5 0 -17 -16 -15 -31 6 -12 15 -12 16 2 5 9 -7 19 -10 22 -6z
m-256 -12 c0 -8 -4 -12 -9 -9 -4 3 -8 9 -8 15 0 5 4 9 8 9 5 0 9 -7 9 -15z
m100 -4 c0 -11 -5 -18 -9 -15 -4 3 -5 11 -1 19 7 21 12 19 10 -4z m79 -5 c0
-14 -3 -23 -7 -20 -6 3 -6 22 0 42 3 10 7 -2 7 -22z m-43 -1 c-3 -9 -8 -14
-10 -11 -3 3 -2 9 2 15 9 16 15 13 8 -4z m-79 -11 c3 -8 2 -12 -4 -9 -6 3 -10
10 -10 16 0 14 7 11 14 -7z m166 4 c0 -4 -4 -8 -9 -8 -6 0 -12 4 -15 8 -3 5 1
9 9 9 8 0 15 -4 15 -9z m85 3 c-9 -8 -36 -10 -30 -2 2 4 11 8 20 8 8 0 13 -3
10 -6z"/>
</g>
</svg>
